<?xml version="1.0" encoding="utf-8"?>
<!-- Generator: Adobe Illustrator 27.0.0, SVG Export Plug-In . SVG Version: 6.00 Build 0)  -->
<svg version="1.1" id="图层_1" xmlns="http://www.w3.org/2000/svg" xmlns:xlink="http://www.w3.org/1999/xlink" x="0px" y="0px"
	 viewBox="0 0 40 40" style="enable-background:new 0 0 40 40;" xml:space="preserve">
<style type="text/css">
	.st0{fill:#FFFFFF;}
</style>
<path class="st0" d="M23,20L39.3,3.6c0.9-0.9,0.9-2.1,0-3s-2.1-0.9-3,0L20,17L3.6,0.7c-0.9-0.9-2.1-0.9-3,0s-0.9,2.1,0,3L17,20
	L0.7,36.4c-0.9,0.9-0.9,2.1,0,3c0.9,0.9,2.1,0.9,3,0L20,23l16.4,16.4c0.9,0.9,2.1,0.9,3,0c0.9-0.9,0.9-2.1,0-3L23,20z"/>
</svg>
